<svg id="icon" xmlns="http://www.w3.org/2000/svg" viewBox="0 0 140 140">
  <path id="browser-hand" d="M84.58,110.83H74.28c-.36-.49-.79-1.1-1.23-1.73-3.84-5.51-11-15.77-23.47-15.77H32.08V90.42a2.91,2.91,0,0,0-2.91-2.92H5.83a2.91,2.91,0,0,0-2.91,2.92v46.66A2.91,2.91,0,0,0,5.83,140H29.17a2.91,2.91,0,0,0,2.91-2.92v-2.91h96.25a2.92,2.92,0,0,0,2.92-2.92C131.25,119.22,106.66,110.83,84.58,110.83ZM26.25,134.17H8.75V93.33h17.5Zm5.83-5.84V99.17h17.5c8.48,0,14,6.7,17.56,11.66H43.75a2.92,2.92,0,0,0,0,5.84H84.58c19.61,0,35.13,6.26,39.56,11.66ZM17.5,129.79a4.38,4.38,0,1,1,4.38-4.37A4.38,4.38,0,0,1,17.5,129.79ZM122.5,0H29.16A14.66,14.66,0,0,0,14.58,14.58V75.83a2.92,2.92,0,0,0,5.84,0V29.17H131.25v55.4a8.79,8.79,0,0,1-8.75,8.76H99.17a2.92,2.92,0,0,0,0,5.84h23.34a14.66,14.66,0,0,0,14.57-14.59v-70A14.65,14.65,0,0,0,122.5,0ZM20.42,23.33V14.59a8.81,8.81,0,0,1,8.75-8.76h93.32a8.81,8.81,0,0,1,8.76,8.75v8.75ZM35,19a4.38,4.38,0,1,1,4.38-4.38A4.39,4.39,0,0,1,35,19Zm11.67,0A4.38,4.38,0,1,1,51,14.58,4.38,4.38,0,0,1,46.67,19Zm11.66,0a4.38,4.38,0,1,1,4.38-4.38A4.38,4.38,0,0,1,58.33,19Z"/>
</svg>
