<svg id="icon" xmlns="http://www.w3.org/2000/svg" viewBox="0 0 140 140">
  <path id="building_modern" data-name="building modern" d="M138.14,81.86l-11.58-4.5h0l-39-15.18V39.12a5.81,5.81,0,0,0-.48-2.3,3.6,3.6,0,0,0-.29-.55A6.05,6.05,0,0,0,85.79,35L64.17,13.38V2.92a2.92,2.92,0,0,0-5.84,0V13.38L36.7,35a6,6,0,0,0-.93,1.26,3.6,3.6,0,0,0-.29.55,5.81,5.81,0,0,0-.48,2.3V75.83H5.83A5.84,5.84,0,0,0,0,81.67v55.41a2.92,2.92,0,1,0,5.83,0V81.67H35v55.41a2.92,2.92,0,1,0,5.83,0V78.76h0V40.83H81.67v96.25a2.92,2.92,0,1,0,5.83,0V68.43L122.5,82v55a2.92,2.92,0,1,0,5.83,0V84.31l7.7,3a2.76,2.76,0,0,0,1.05.2,2.92,2.92,0,0,0,1.06-5.64ZM61.25,18.71,77.54,35H45ZM17.5,90.42v5.83a2.92,2.92,0,1,1-5.83,0V90.42a2.92,2.92,0,1,1,5.83,0Zm11.67,0v5.83a2.92,2.92,0,0,1-5.84,0V90.42a2.92,2.92,0,0,1,5.84,0ZM17.5,107.92v5.83a2.92,2.92,0,1,1-5.83,0v-5.83a2.92,2.92,0,1,1,5.83,0Zm11.67,0v5.83a2.92,2.92,0,0,1-5.84,0v-5.83a2.92,2.92,0,0,1,5.84,0ZM17.5,125.42v5.83a2.92,2.92,0,1,1-5.83,0v-5.83a2.92,2.92,0,1,1,5.83,0Zm11.67,0v5.83a2.92,2.92,0,0,1-5.84,0v-5.83a2.92,2.92,0,0,1,5.84,0Zm70-35v5.83a2.92,2.92,0,0,1-5.84,0V90.42a2.92,2.92,0,0,1,5.84,0Zm17.5,0v5.83a2.92,2.92,0,0,1-5.84,0V90.42a2.92,2.92,0,0,1,5.84,0Zm-17.5,17.5v5.83a2.92,2.92,0,0,1-5.84,0v-5.83a2.92,2.92,0,0,1,5.84,0Zm17.5,0v5.83a2.92,2.92,0,0,1-5.84,0v-5.83a2.92,2.92,0,0,1,5.84,0Zm-17.5,17.5v5.83a2.92,2.92,0,1,1-5.84,0v-5.83a2.92,2.92,0,0,1,5.84,0Zm17.5,0v5.83a2.92,2.92,0,1,1-5.84,0v-5.83a2.92,2.92,0,0,1,5.84,0ZM52.5,49.58v70a2.92,2.92,0,1,1-5.83,0v-70a2.92,2.92,0,0,1,5.83,0Zm11.67,0v70a2.92,2.92,0,0,1-5.84,0v-70a2.92,2.92,0,0,1,5.84,0Zm11.66,0v70a2.92,2.92,0,1,1-5.83,0v-70a2.92,2.92,0,0,1,5.83,0Z"/>
</svg>
