<?xml version="1.0" encoding="UTF-8"?>
<svg width="476px" height="394px" viewBox="0 0 476 394" version="1.1" xmlns="http://www.w3.org/2000/svg" xmlns:xlink="http://www.w3.org/1999/xlink">
    <title>Group 13 Copy 2</title>
    <g id="New" stroke="none" stroke-width="1" fill="none" fill-rule="evenodd">
        <g id="Exports" transform="translate(-433.000000, -781.000000)">
            <g id="Group-13-Copy-2" transform="translate(433.000000, 781.000000)">
                <g id="Group-52-Copy-3" transform="translate(78.000000, 5.000000)">
                    <g id="Group-48-Copy-4" transform="translate(40.480000, 100.320000)">
                        <rect id="Rectangle" fill="#272727" x="0" y="0" width="184.448" height="73.92" rx="23.936"></rect>
                        <g id="mongodb-seeklogo.com" transform="translate(18.304000, 14.080000)" fill-rule="nonzero">
                            <path d="M134.242505,17.0262749 C134.112671,17.0522903 133.982837,17.3382174 133.982837,17.4940671 C133.956822,18.5334703 133.930806,21.2881926 133.930806,23.1591183 C133.930806,23.2111492 134.008609,23.314968 134.086656,23.314968 C134.476402,23.3409834 135.411986,23.3669989 136.217493,23.3669989 C137.334943,23.3669989 137.9846,23.2111492 138.348573,23.0552995 C139.283915,22.5875073 139.725691,21.5738765 139.725691,20.4564269 C139.725691,17.9358438 137.958584,16.9742439 135.33394,16.9742439 C135.152074,16.9484716 134.632494,16.9484716 134.242505,17.0262749 L134.242505,17.0262749 L134.242505,17.0262749 Z M140.947203,28.6423042 C140.947203,26.0696903 139.050019,24.6402982 135.619867,24.6402982 C135.464017,24.6402982 134.372583,24.6142827 134.112671,24.6663137 C134.034625,24.6923291 133.930806,24.7443601 133.930806,24.8224065 C133.930806,26.6673167 133.904791,29.6039043 133.982837,30.7471262 C134.034625,31.2409338 134.398598,31.9426221 134.840375,32.1505026 C135.307924,32.4104144 136.373586,32.462202 137.101047,32.462202 C139.154081,32.462202 140.947203,31.3189801 140.947203,28.6423042 L140.947203,28.6423042 L140.947203,28.6423042 Z M128.941428,15.5971259 C129.201096,15.5971259 129.980831,15.6749292 131.981834,15.6749292 C133.878775,15.6749292 135.385971,15.6231414 137.231124,15.6231414 C139.491796,15.6231414 142.610248,16.4286484 142.610248,19.8067695 C142.610248,21.4700577 141.440768,22.7953879 139.907557,23.4450453 C139.829753,23.4710608 139.829753,23.5228486 139.907557,23.548864 C142.090425,24.0947027 144.013625,25.4460483 144.013625,27.9926469 C144.013625,30.4874578 142.454398,32.0724563 140.193484,33.0600718 C138.816122,33.6576982 137.101047,33.8655787 135.359955,33.8655787 C134.034625,33.8655787 130.474639,33.7097292 128.499651,33.7617601 C128.291771,33.6837135 128.681516,32.7481291 128.863382,32.5922795 C129.331174,32.5662639 129.694904,32.5402486 130.188712,32.3843987 C130.8904,32.2025336 130.968203,31.9946531 131.072265,30.9292344 C131.124296,30.0196656 131.124296,26.797151 131.124296,24.5104639 C131.124296,21.3659958 131.150311,19.2351586 131.124296,18.1957554 C131.098281,17.3902483 130.812354,17.1303368 130.240742,16.9742439 C129.798966,16.8964406 129.071262,16.7923787 128.473636,16.7145755 C128.343558,16.5844981 128.785335,15.7009446 128.941428,15.5971259 L128.941428,15.5971259 L128.941428,15.5971259 Z M113.947034,31.760757 C114.570919,32.2543215 115.792188,32.462202 116.883621,32.462202 C118.286998,32.462202 119.690132,32.2025336 121.041477,30.9810223 C122.418839,29.7337385 123.380195,27.8107818 123.380195,24.7443601 C123.380195,21.8077726 122.262746,19.4170237 119.976059,18.0138902 C118.676744,17.20814 117.013456,16.8704251 115.090499,16.8704251 C114.518888,16.8704251 113.973049,16.8964406 113.635335,17.0522903 C113.557288,17.1043213 113.375423,17.3382174 113.375423,17.4680516 C113.323392,17.9878748 113.323392,21.9896377 113.323392,24.3285988 C113.323392,26.7453631 113.323392,30.1234842 113.375423,30.5132301 C113.375423,30.9032191 113.557288,31.5008452 113.947034,31.760757 L113.947034,31.760757 L113.947034,31.760757 Z M108.048087,15.5971259 C108.541894,15.5971259 110.438836,15.6749292 111.348404,15.6749292 C112.985678,15.6749292 114.154915,15.5971259 117.247352,15.5971259 C119.845981,15.5971259 122.02885,16.2988142 123.588076,17.6239013 C125.485017,19.261174 126.472632,21.5220886 126.472632,24.2765678 C126.472632,28.2005276 124.67951,30.4614422 122.886388,31.760757 C121.093508,33.0860871 118.754548,33.8655787 115.428457,33.8655787 C113.66135,33.8655787 110.620944,33.8135478 108.100118,33.7875324 L108.074102,33.7875324 C107.944268,33.5538793 108.281983,32.6443105 108.489864,32.6182949 C109.165536,32.5402486 109.347402,32.514233 109.685359,32.3843987 C110.230955,32.1765182 110.335017,31.8905912 110.413063,30.9292344 C110.490867,29.1361121 110.464851,26.9792593 110.464851,24.5364794 C110.464851,22.7953879 110.490867,19.3910083 110.438836,18.2995741 C110.361033,17.3902483 109.971286,17.1563522 109.191552,17.0002594 C108.801806,16.9224561 108.281983,16.8183943 107.554523,16.7405909 C107.450461,16.5584826 107.918253,15.7529756 108.048087,15.5971259 L108.048087,15.5971259 L108.048087,15.5971259 Z" id="Shape" fill="#FFFFFF"></path>
                            <path d="M76.6046212,32.7741447 C75.9549638,32.6960981 75.4871716,32.5922795 74.9153175,32.3323678 C74.8375142,32.2803368 74.707437,32.0206684 74.707437,31.9166065 C74.6554063,31.0070377 74.6554063,28.4084081 74.6554063,26.6673167 C74.6554063,25.26394 74.4217532,24.0426718 73.8238837,23.1851338 C73.1221951,22.1975184 72.1088074,21.6259074 70.8094926,21.6259074 C69.6660276,21.6259074 68.132817,22.4056422 66.8595175,23.4970763 C66.8335022,23.5228486 66.6256217,23.7049569 66.651637,23.4190298 C66.651637,23.1331028 66.7036677,22.5614918 66.7296836,22.171746 C66.7556989,21.8077726 66.5478184,21.6259074 66.5478184,21.6259074 C65.7160526,22.0416687 63.3773347,22.5875073 62.5197966,22.6653106 C61.8961548,22.7953879 61.7403049,23.3930144 62.3899623,23.600895 L62.415978,23.600895 C63.117423,23.8087757 63.5852152,24.0426718 63.9489456,24.2765678 C64.2088573,24.4844485 64.1828414,24.7703755 64.1828414,25.0042716 C64.2088573,26.9532438 64.2088573,29.941619 64.131054,31.5788918 C64.1050381,32.2285492 63.923173,32.462202 63.4553813,32.5662639 L63.5071687,32.5402486 C63.1434383,32.6182949 62.8575113,32.6960981 62.4157347,32.7481291 C62.2598851,32.9039789 62.2598851,33.7357445 62.4157347,33.9176097 C62.701662,33.9176097 64.2088573,33.8395634 65.4563842,33.8395634 C67.1714599,33.8395634 68.0550137,33.9176097 68.4967901,33.9176097 C68.6786552,33.7097292 68.7306865,32.9299942 68.6266246,32.7481291 C68.132817,32.7221137 67.7690867,32.6703258 67.4313717,32.5662639 C66.9635794,32.462202 66.8335022,32.2285492 66.8074869,31.6827104 C66.7556989,30.3053493 66.7556989,27.3950205 66.7556989,25.4200329 C66.7556989,24.8741943 66.9115488,24.6142827 67.067398,24.458433 C67.6650248,23.938853 68.6266246,23.5748795 69.4841625,23.5748795 C70.315685,23.5748795 70.8615238,23.8347911 71.2772848,24.1727491 C71.8488962,24.6402982 72.0307614,25.315971 72.1088074,25.8097787 C72.2386419,26.9272283 72.1868539,29.1361121 72.1868539,31.0590686 C72.1868539,32.0984717 72.1088074,32.3583834 71.7190617,32.4882176 C71.5371965,32.5662639 71.0694043,32.6703258 70.5235655,32.7221137 C70.3417004,32.9039789 70.3937316,33.7097292 70.5235655,33.8915943 C71.2772848,33.8915943 72.1608386,33.8135478 73.4601534,33.8135478 C75.0711673,33.8135478 76.1108136,33.8915943 76.5265746,33.8915943 C76.6564091,33.7357445 76.7084398,32.9820252 76.6043779,32.7741447 L76.6046212,32.7741447 L76.6046212,32.7741447 Z M83.8028832,22.8474189 C82.4255224,22.8474189 81.567984,23.9128375 81.567984,25.5758826 C81.567984,27.2649431 82.3214605,29.2139153 84.4525406,29.2139153 C84.816271,29.2139153 85.4919437,29.0580655 85.8036433,28.6943352 C86.2974509,28.2265429 86.6354092,27.2909586 86.6354092,26.3035864 C86.6354092,24.1467336 85.5697469,22.8474189 83.8028832,22.8474189 L83.8028832,22.8474189 L83.8028832,22.8474189 Z M83.6207753,34.3333709 C83.1011952,34.3333709 82.7372215,34.4892208 82.5035684,34.619298 C81.4118914,35.3207433 80.9183266,35.9964161 80.9183266,36.8021663 C80.9183266,37.5556423 81.2040109,38.1532687 81.8278957,38.6730919 C82.5813717,39.3227493 83.6207753,39.6346917 84.9461054,39.6346917 C87.5967657,39.6346917 88.766246,38.2052997 88.766246,36.8021663 C88.766246,35.8145509 88.2724384,35.1648935 87.2590507,34.8011632 C86.5313473,34.4892208 85.2060166,34.3333709 83.6207753,34.3333709 L83.6207753,34.3333709 L83.6207753,34.3333709 Z M83.8028832,41.0898563 C82.2176414,41.0898563 81.0741764,40.7518983 80.086804,39.998422 C79.1252042,39.2707184 78.7094432,38.1792844 78.7094432,37.4258081 C78.7094432,37.2179276 78.7614739,36.6460734 79.2292661,36.1264933 C79.5149505,35.8145509 80.1385919,35.2169244 81.6200152,34.2035367 C81.6718031,34.1775214 81.6978185,34.1515058 81.6978185,34.0994748 C81.6978185,34.0474439 81.6457872,33.9954129 81.5939999,33.9696406 C80.3724883,33.5018484 80.008758,32.7481291 79.9046961,32.3323678 L79.9046961,32.2803368 C79.8789235,32.1244873 79.8268929,31.9686375 80.0607887,31.8125446 C80.2426538,31.6827104 80.5025656,31.5268609 80.7882493,31.3449957 C81.2300262,31.0850842 81.6978185,30.7991572 81.9837455,30.5652611 C82.0357762,30.5132301 82.0357762,30.4614422 82.0357762,30.4094112 C82.0357762,30.3573803 81.9837455,30.3053493 81.9317143,30.279577 C80.1128199,29.6817075 79.2032508,28.3303618 79.2032508,26.3035864 C79.2032508,24.9782562 79.8008775,23.7827602 80.8662959,23.029284 C81.5939999,22.45743 83.4128943,21.7559848 84.6083905,21.7559848 L84.686437,21.7559848 C85.9077052,21.7817571 86.583378,22.0416687 87.544735,22.3796266 C88.0645579,22.5614918 88.5583655,22.6392951 89.2340382,22.6392951 C90.2474259,22.6392951 90.6892028,22.3275958 91.0529332,21.9638654 C91.0789485,22.0156532 91.1309797,22.1457306 91.1569951,22.4834454 C91.1830104,22.8214034 91.0789485,23.314968 90.8190373,23.6789414 C90.6111563,23.9646253 90.1436073,24.1727491 89.6758151,24.1727491 L89.5457379,24.1727491 C89.0779457,24.1207182 88.8700652,24.0686872 88.8700652,24.0686872 L88.766246,24.1207182 C88.7402307,24.1727491 88.766246,24.2245369 88.7922619,24.3025833 L88.8182772,24.3546143 C88.8700652,24.5885103 88.9741271,25.2899556 88.9741271,25.4720639 C88.9741271,27.6029011 88.1165886,28.5382423 87.20702,29.2399306 C86.3234662,29.889588 85.3100785,30.3053493 84.1666136,30.4094112 C84.1405982,30.4094112 84.0367796,30.4094112 83.8028832,30.4354268 C83.672806,30.4354268 83.4909408,30.4614422 83.4649255,30.4614422 L83.4389102,30.4614422 C83.2310291,30.5132301 82.7114495,30.7731416 82.7114495,31.2149185 C82.7114495,31.6046641 82.9453453,32.0724563 84.0625517,32.1505026 C84.2964481,32.1765182 84.5303439,32.1765182 84.7902556,32.2025336 C86.2714356,32.3063525 88.1165886,32.4364297 88.9741271,32.7221137 C90.1693799,33.1638904 90.9230992,34.229309 90.9230992,35.5028515 C90.9230992,37.4258081 89.5457379,39.2189304 87.2590507,40.336137 C86.1416011,40.8299446 85.0241514,41.0898563 83.8028832,41.0898563 L83.8028832,41.0898563 L83.8028832,41.0898563 Z M98.6151688,22.9772531 C98.06933,22.9772531 97.5755225,23.1070873 97.2117921,23.3669989 C96.1984044,23.9906408 95.6785815,25.2381677 95.6785815,27.0570625 C95.6785815,30.4614422 97.3936573,32.852191 99.836437,32.852191 C100.564141,32.852191 101.135752,32.6443105 101.629559,32.2285492 C102.383035,31.6046641 102.773024,30.3573803 102.773024,28.6162889 C102.773024,25.2381677 101.083721,22.9772531 98.6151688,22.9772531 L98.6151688,22.9772531 L98.6151688,22.9772531 Z M99.082961,34.0994748 C94.6651938,34.0994748 93.0799519,30.8511881 93.0799519,27.8107818 C93.0799519,25.6799445 93.9374898,24.0426718 95.6525656,22.8731912 C96.8740771,22.1197151 98.3292418,21.7039538 99.6285565,21.7039538 C103.006677,21.7039538 105.371654,24.1207182 105.371654,27.6029011 C105.371654,29.9676346 104.436069,31.8385602 102.642947,32.9820252 C101.785409,33.5536363 100.304229,34.0994748 99.0827177,34.0994748 L99.082961,34.0994748 L99.082961,34.0994748 Z M52.7749359,22.9772531 C52.2290974,22.9772531 51.7355329,23.1070873 51.3715595,23.3669989 C50.3581718,23.9906408 49.8383486,25.2381677 49.8383486,27.0570625 C49.8383486,30.4614422 51.5534247,32.852191 53.9962044,32.852191 C54.7239081,32.852191 55.2955192,32.6443105 55.7893268,32.2285492 C56.5428028,31.6046641 56.9327917,30.3573803 56.9327917,28.6162889 C56.9327917,25.2381677 55.2695036,22.9772531 52.7749359,22.9772531 L52.7749359,22.9772531 L52.7749359,22.9772531 Z M53.2427281,34.0994748 C48.8249609,34.0994748 47.239719,30.8511881 47.239719,27.8107818 C47.239719,25.6799445 48.0972569,24.0426718 49.812333,22.8731912 C51.0338445,22.1197151 52.4890088,21.7039538 53.7883236,21.7039538 C57.1666878,21.7039538 59.5314213,24.1207182 59.5314213,27.6029011 C59.5314213,29.9676346 58.5958369,31.8385602 56.8027145,32.9820252 C55.9711919,33.5536363 54.490012,34.0994748 53.2427281,34.0994748 L53.2427281,34.0994748 L53.2427281,34.0994748 Z M23.5401111,33.8395634 C23.4880801,33.7617601 23.4360492,33.527864 23.4620647,33.2419369 C23.4620647,33.0340561 23.5140956,32.9039789 23.5401111,32.852191 C24.0857066,32.7741447 24.3716336,32.6960981 24.683333,32.6182949 C25.2031561,32.4882176 25.4110368,32.2025336 25.4370522,31.5528762 C25.5150986,29.9936499 25.5150986,27.031047 25.4890832,24.9782562 L25.4890832,24.9262252 C25.4890832,24.6923291 25.4890832,24.406402 25.2031561,24.1985214 C24.7873948,23.938853 24.2935872,23.7049569 23.6439298,23.5228486 C23.4100337,23.4450453 23.254184,23.314968 23.2801995,23.1591183 C23.2801995,23.0032686 23.4360492,22.8214034 23.7740072,22.7693725 C24.6315452,22.691326 26.8662012,22.1457306 27.7497547,21.7559848 C27.8017857,21.8077726 27.879832,21.9638654 27.879832,22.171746 L27.8538166,22.45743 C27.8278011,22.743357 27.8017857,23.081315 27.8017857,23.4190298 C27.8017857,23.5228486 27.9058475,23.600895 28.0096663,23.600895 C28.0616972,23.600895 28.1137282,23.5748795 28.165759,23.548864 C29.8288041,22.2495493 31.3359994,21.7817571 32.115491,21.7817571 C33.3890335,21.7817571 34.3764059,22.3796266 35.1301249,23.6269105 C35.1819128,23.7049569 35.2339438,23.7307292 35.3119901,23.7307292 C35.364021,23.7307292 35.4418243,23.7049569 35.4678399,23.6529259 C37.0010508,22.4834454 38.5342617,21.7817571 39.5476494,21.7817571 C41.9644136,21.7817571 43.3938056,23.5748795 43.3938056,26.6152858 C43.3938056,27.4728238 43.3938056,28.5902733 43.3677903,29.6039043 C43.3677903,30.5132301 43.3417749,31.3449957 43.3417749,31.9426221 C43.3417749,32.0724563 43.5236401,32.4882176 43.8095669,32.5662639 C44.1732972,32.7481291 44.667105,32.8261756 45.3167624,32.9299942 L45.3427778,32.9299942 C45.3948087,33.1118594 45.2907468,33.7875324 45.1869282,33.9176097 C45.0308354,33.9176097 44.7969393,33.9176097 44.5372708,33.8915943 C44.043463,33.8655787 43.3417749,33.8395634 42.5622833,33.8395634 C40.9510258,33.8395634 40.1195033,33.8655787 39.3137533,33.9176097 C39.2619654,33.7097292 39.2359498,33.0860871 39.3137533,32.9299942 C39.7815453,32.852191 40.0154414,32.7741447 40.3013684,32.6960981 C40.8211916,32.5402486 40.9510258,32.3063525 40.9770415,31.6306794 C40.9770415,31.1371149 41.0808601,26.9272283 40.9250105,25.9135974 C40.7691607,24.8741943 39.989426,23.6529259 38.27435,23.6529259 C37.6246926,23.6529259 36.6113049,23.9128375 35.6236894,24.6663137 C35.5719018,24.7183446 35.5198708,24.8481788 35.5198708,24.9262252 L35.5198708,24.9522407 C35.6236894,25.4978362 35.6236894,26.1217212 35.6236894,27.083078 L35.6236894,28.7721384 C35.6236894,29.941619 35.5976741,31.0330533 35.6236894,31.8645756 C35.6236894,32.4364297 35.9616475,32.5662639 36.2475745,32.6703258 C36.4034244,32.6960981 36.507243,32.7221137 36.6373205,32.7481291 C36.8712166,32.80016 37.1051127,32.852191 37.468843,32.9299942 C37.520874,33.0340561 37.520874,33.3717711 37.4428274,33.6576982 C37.4168121,33.8135478 37.3647811,33.8915943 37.3390088,33.9176097 C36.4554553,33.8915943 35.5458862,33.8655787 34.2205561,33.8655787 C33.8308104,33.8655787 33.1551374,33.8915943 32.5832833,33.8915943 C32.115491,33.8915943 31.6737144,33.9176097 31.414046,33.9176097 C31.3880304,33.8655787 31.3359994,33.6837135 31.3359994,33.3977865 C31.3359994,33.1638904 31.3880304,32.9820252 31.4400613,32.9299942 C31.5698955,32.9039789 31.6737144,32.8782066 31.8037916,32.8782066 C32.115491,32.8261756 32.3754028,32.7741447 32.6353142,32.7221137 C33.0770911,32.5922795 33.2329406,32.3583834 33.2589563,31.7867723 C33.3370025,30.4874578 33.4148058,26.7713786 33.2329406,25.8357942 C32.9212413,24.3285988 32.0637034,23.5748795 30.6863423,23.5748795 C29.8808351,23.5748795 28.8672043,23.9646253 28.0356818,24.5885103 C27.9058475,24.6923291 27.8017857,24.9522407 27.8017857,25.1861368 L27.8017857,26.7193476 C27.8017857,28.5902733 27.8017857,30.9292344 27.8278011,31.9426221 C27.8538166,32.2543215 27.9576353,32.6182949 28.5555049,32.7481291 C28.6853392,32.7741447 28.8932197,32.8261756 29.1531314,32.852191 L29.6209236,32.9299942 C29.6729546,33.0860871 29.646939,33.7097292 29.5428771,33.9176097 C29.2829656,33.9176097 28.9712662,33.8915943 28.6072926,33.8915943 C28.0616972,33.8655787 27.3600089,33.8395634 26.5805173,33.8395634 C25.6709484,33.8395634 25.021291,33.8655787 24.5014678,33.8915943 C24.1377375,33.8395634 23.8518104,33.8395634 23.5401111,33.8395634 L23.5401111,33.8395634 L23.5401111,33.8395634 Z" id="Shape" fill="#FFFFFF"></path>
                            <g id="Group">
                                <path d="M9.87104763,40.0764686 L8.80562899,39.7124953 C8.80562899,39.7124953 8.93570633,34.28134 6.98673421,33.8915943 C5.68741947,32.3843987 7.19461485,-30.0352262 11.8720507,33.6837135 C11.8720507,33.6837135 10.2610365,34.4892208 9.97510951,35.8665818 C9.66316699,37.2179276 9.87104763,40.0764686 9.87104763,40.0764686 L9.87104763,40.0764686 L9.87104763,40.0764686 Z" id="Path" fill="#FFFFFF"></path>
                                <path d="M9.87104763,40.0764686 L8.80562899,39.7124953 C8.80562899,39.7124953 8.93570633,34.28134 6.98673421,33.8915943 C5.68741947,32.3843987 7.19461485,-30.0352262 11.8720507,33.6837135 C11.8720507,33.6837135 10.2610365,34.4892208 9.97510951,35.8665818 C9.66316699,37.2179276 9.87104763,40.0764686 9.87104763,40.0764686 L9.87104763,40.0764686 L9.87104763,40.0764686 Z" id="Path" fill="#FFFFFF"></path>
                                <path d="M10.4429017,34.8271788 C10.4429017,34.8271788 19.772001,28.6943352 17.5891328,15.9348408 C15.484311,6.65777238 10.520705,3.61736616 9.97510948,2.44788564 C9.37748306,1.61636311 8.80562896,0.161198667 8.80562896,0.161198667 L9.1956179,25.9656285 C9.1956179,25.9916439 8.38986768,33.8655787 10.4429017,34.8271788" id="Path" fill="#FFFFFF"></path>
                                <path d="M10.4429017,34.8271788 C10.4429017,34.8271788 19.772001,28.6943352 17.5891328,15.9348408 C15.484311,6.65777238 10.520705,3.61736616 9.97510948,2.44788564 C9.37748306,1.61636311 8.80562896,0.161198667 8.80562896,0.161198667 L9.1956179,25.9656285 C9.1956179,25.9916439 8.38986768,33.8655787 10.4429017,34.8271788" id="Path" fill="#D5D5D5"></path>
                                <path d="M8.26003369,35.1648935 C8.26003369,35.1648935 -0.49745471,29.1878997 0.0223684425,18.6635476 C0.515932989,8.13895234 6.70080734,2.96770879 7.89606023,2.03212437 C8.67579491,1.20060184 8.70181042,0.888659318 8.75384137,0.0571367825 C9.29943681,1.22661731 9.19561809,17.546098 9.27342136,19.4690547 C9.50731747,26.8751974 8.85766008,33.7617601 8.26003369,35.1648935 L8.26003369,35.1648935 L8.26003369,35.1648935 Z" id="Path" fill="#FFFFFF"></path>
                                <path d="M8.26003369,35.1648935 C8.26003369,35.1648935 -0.49745471,29.1878997 0.0223684425,18.6635476 C0.515932989,8.13895234 6.70080734,2.96770879 7.89606023,2.03212437 C8.67579491,1.20060184 8.70181042,0.888659318 8.75384137,0.0571367825 C9.29943681,1.22661731 9.19561809,17.546098 9.27342136,19.4690547 C9.50731747,26.8751974 8.85766008,33.7617601 8.26003369,35.1648935 L8.26003369,35.1648935 L8.26003369,35.1648935 Z" id="Path" fill="#FFFFFF"></path>
                            </g>
                        </g>
                    </g>
                    <g id="Group-51-Copy" transform="translate(243.540419, 101.472000)">
                        <rect id="Rectangle" fill="#272727" x="0.219580952" y="0.528" width="76.56" height="73.04" rx="36.52"></rect>
                        <g id="Group" transform="translate(14.080000, 16.600000)" fill-rule="nonzero">
                            <g transform="translate(24.763781, 22.106667) scale(-1, 1) rotate(-180.000000) translate(-24.763781, -22.106667) translate(0.263781, 0.606667)" id="Path">
                                <g transform="translate(0.014505, 0.002459)" fill="#FFFFFF">
                                    <polygon points="29.2508383 42.0417627 23.7707783 32.3883839 18.2907184 42.0417627 0.0413379615 42.0417627 23.7707783 0.240941096 47.5002187 42.0417627"></polygon>
                                </g>
                                <g transform="translate(9.442461, 16.720820)" fill="#D5D5D5">
                                    <polygon points="19.8228821 25.3234009 14.3428222 15.6700221 8.86276226 25.3234009 0.105157972 25.3234009 14.3428222 0.243399679 28.5804864 25.3234009"></polygon>
                                </g>
                            </g>
                        </g>
                    </g>
                    <g id="Group-48-Copy-5" transform="translate(103.808000, 0.000000)">
                        <rect id="Rectangle" fill="#272727" x="0" y="0" width="178.112" height="73.92" rx="23.936"></rect>
                        <g id="Group-53" transform="translate(26.048000, 14.784000)" fill="#FFFFFF">
                            <g id="Group-4">
                                <path d="M19.675392,19.357888 C19.675392,18.97632 19.474752,18.625728 19.14528,18.436352 L10.367808,13.385152 C10.219264,13.297856 10.052416,13.252096 9.88416,13.245056 C9.869376,13.245056 9.806016,13.245056 9.793344,13.245056 C9.625792,13.252096 9.459648,13.297856 9.308992,13.385152 L0.530816,18.436352 C0.203456,18.625728 0,18.97632 0,19.357888 L0.019008,32.960576 C0.019008,33.149952 0.117568,33.325952 0.283712,33.41888 C0.44704,33.516032 0.648384,33.516032 0.810304,33.41888 L6.027648,30.431104 C6.35712,30.235392 6.55776,29.889728 6.55776,29.51168 L6.55776,23.155968 C6.55776,22.777216 6.759104,22.426624 7.087168,22.238656 L9.308992,20.958784 C9.474432,20.863744 9.65536,20.816576 9.840512,20.816576 C10.020736,20.816576 10.206592,20.863744 10.367808,20.958784 L12.588224,22.238656 C12.916992,22.426624 13.118336,22.777216 13.118336,23.155968 L13.118336,29.51168 C13.118336,29.889728 13.321792,30.237504 13.649856,30.431104 L18.865088,33.41888 C19.028416,33.516032 19.232576,33.516032 19.3952,33.41888 C19.556416,33.325952 19.658496,33.149952 19.658496,32.960576 L19.675392,19.357888" id="Fill-1"></path>
                                <path d="M65.733184,26.440832 C65.733184,26.535168 65.682496,26.623168 65.600832,26.670336 L62.5856,28.407808 C62.503936,28.454976 62.40256,28.454976 62.320896,28.407808 L59.305664,26.670336 C59.223296,26.623168 59.173312,26.535168 59.173312,26.440832 L59.173312,22.959552 C59.173312,22.864512 59.223296,22.777216 59.305664,22.729344 L62.320192,20.988352 C62.40256,20.94048 62.503936,20.94048 62.5856,20.988352 L65.600832,22.729344 C65.682496,22.777216 65.733184,22.864512 65.733184,22.959552 L65.733184,26.440832 Z M66.547712,0.65824 C66.38368,0.567424 66.18304,0.568832 66.02112,0.664576 C65.8592,0.759616 65.759232,0.933504 65.759232,1.121472 L65.759232,14.592512 C65.759232,14.724864 65.688832,14.848064 65.57408,14.91424 C65.459328,14.980416 65.317824,14.980416 65.203072,14.91424 L63.00448,13.647744 C62.676416,13.458368 62.273024,13.459072 61.94496,13.647744 L53.163264,18.71584 C52.8352,18.905216 52.633152,19.255104 52.633152,19.633856 L52.633152,29.771456 C52.633152,30.150912 52.8352,30.5008 53.163264,30.690176 L61.944256,35.761792 C62.27232,35.951168 62.676416,35.951168 63.005184,35.761792 L71.787584,30.690176 C72.115648,30.5008 72.317696,30.150912 72.317696,29.771456 L72.317696,4.500672 C72.317696,4.116288 72.109312,3.762176 71.773504,3.574208 L66.547712,0.65824 L66.547712,0.65824 Z" id="Fill-3"></path>
                            </g>
                            <path d="M97.96512,22.868032 C98.291776,22.678656 98.492416,22.329472 98.492416,21.951424 L98.492416,19.494464 C98.492416,19.11712 98.291776,18.767232 97.964416,18.577856 L89.239744,13.511872 C88.910976,13.321088 88.506176,13.320384 88.176704,13.510464 L79.398528,18.57856 C79.070464,18.767936 78.868416,19.117824 78.868416,19.496576 L78.868416,29.63136 C78.868416,30.012928 79.07328,30.364224 79.40416,30.552896 L88.128128,35.52384 C88.449856,35.707584 88.844096,35.708992 89.167936,35.529472 L94.444416,32.596608 C94.611968,32.50368 94.71616,32.32768 94.716864,32.136896 C94.718272,31.945408 94.616192,31.768704 94.450752,31.673664 L85.61696,26.602752 C85.45152,26.508416 85.350144,26.33312 85.350144,26.14304 L85.350144,22.966592 C85.350144,22.777216 85.45152,22.60192 85.615552,22.507584 L88.365376,20.92288 C88.528704,20.82784 88.730752,20.82784 88.89408,20.92288 L91.645312,22.507584 C91.809344,22.60192 91.91072,22.777216 91.91072,22.966592 L91.91072,25.465792 C91.91072,25.655872 92.012096,25.831168 92.176128,25.925504 C92.340864,26.020544 92.542912,26.01984 92.706944,25.9248 L97.96512,22.868032" id="Fill-5"></path>
                            <path d="M35.64352,13.45696 C35.971584,13.267584 36.37568,13.267584 36.703744,13.45696 L45.484032,18.523648 C45.812096,18.713024 46.014144,19.062912 46.014144,19.442368 L46.014144,29.584192 C46.014144,29.962944 45.812096,30.312832 45.484032,30.502208 L36.703744,35.573824 C36.37568,35.7632 35.971584,35.7632 35.642816,35.573824 L26.86464,30.502208 C26.536576,30.312832 26.334528,29.962944 26.334528,29.584192 L26.334528,19.442368 C26.334528,19.062912 26.536576,18.713024 26.865344,18.523648 L35.64352,13.45696" id="Fill-6"></path>
                            <path d="M115.013184,35.718144 C114.710464,35.718144 114.409856,35.639296 114.145152,35.485824 L111.380544,33.850432 C110.968,33.61952 111.169344,33.537856 111.305216,33.489984 C111.856448,33.2992 111.96768,33.254848 112.55552,32.921856 C112.616768,32.88736 112.697728,32.900032 112.761088,32.937344 L114.884352,34.198208 C114.961792,34.241152 115.070208,34.241152 115.141312,34.198208 L123.420352,29.419456 C123.497792,29.375104 123.547072,29.287104 123.547072,29.195584 L123.547072,19.640192 C123.547072,19.547264 123.497792,19.459264 123.418944,19.412096 L115.14272,14.637568 C115.065984,14.592512 114.964608,14.592512 114.887168,14.637568 L106.613056,19.413504 C106.5328,19.459264 106.482112,19.549376 106.482112,19.640192 L106.482112,29.195584 C106.482112,29.287104 106.5328,29.372992 106.612352,29.41664 L108.88064,30.726784 C110.111232,31.34208 110.865216,30.617664 110.865216,29.889728 L110.865216,20.455424 C110.865216,20.322368 110.972224,20.217472 111.10528,20.217472 L112.155648,20.217472 C112.286592,20.217472 112.395008,20.322368 112.395008,20.455424 L112.395008,29.889728 C112.395008,31.53216 111.500928,32.474112 109.94368,32.474112 C109.46496,32.474112 109.08832,32.474112 108.036544,31.955968 L105.865408,30.705664 C105.32896,30.395904 104.997376,29.815808 104.997376,29.195584 L104.997376,19.640192 C104.997376,19.019968 105.32896,18.439872 105.865408,18.13152 L114.145152,13.347136 C114.668928,13.050752 115.365184,13.050752 115.884736,13.347136 L124.163776,18.13152 C124.700224,18.44128 125.033216,19.019968 125.033216,19.640192 L125.033216,29.195584 C125.033216,29.815808 124.700224,30.393792 124.163776,30.705664 L115.884736,35.485824 C115.620032,35.639296 115.320128,35.718144 115.013184,35.718144" id="Fill-7"></path>
                            <path d="M117.570816,29.135744 C113.947328,29.135744 113.188416,27.472192 113.188416,26.077568 C113.188416,25.944512 113.295424,25.838912 113.427776,25.838912 L114.49856,25.838912 C114.61824,25.838912 114.717504,25.9248 114.736512,26.041664 C114.897728,27.131456 115.379968,27.68128 117.570816,27.68128 C119.314624,27.68128 120.057344,27.28704 120.057344,26.36128 C120.057344,25.827648 119.846848,25.432 117.136448,25.166592 C114.870976,24.94272 113.470016,24.442176 113.470016,22.629376 C113.470016,20.958784 114.878016,19.962624 117.238528,19.962624 C119.8912,19.962624 121.203456,20.883456 121.3696,22.85888 C121.375936,22.926464 121.352,22.991936 121.306944,23.042624 C121.261184,23.090496 121.197824,23.11936 121.131648,23.11936 L120.05664,23.11936 C119.945408,23.11936 119.846848,23.039808 119.82432,22.932096 C119.566656,21.78528 118.939392,21.4192 117.238528,21.4192 C115.334208,21.4192 115.113152,22.082368 115.113152,22.579392 C115.113152,23.182016 115.374336,23.357312 117.945344,23.697344 C120.4896,24.033856 121.698368,24.50976 121.698368,26.29792 C121.698368,28.102272 120.19392,29.135744 117.570816,29.135744" id="Fill-8"></path>
                            <path d="M88.578688,22.393536 C88.642048,22.356928 88.719488,22.356928 88.782144,22.393536 L90.46752,23.36576 C90.530176,23.402368 90.568896,23.469248 90.568896,23.54176 L90.568896,25.487616 C90.568896,25.560128 90.530176,25.627712 90.46752,25.66432 L88.782144,26.63584 C88.719488,26.672448 88.642048,26.672448 88.578688,26.63584 L86.895424,25.66432 C86.832064,25.627712 86.793344,25.560128 86.793344,25.487616 L86.793344,23.54176 C86.793344,23.469248 86.832064,23.402368 86.895424,23.36576 L88.578688,22.393536" id="Fill-9"></path>
                            <path d="M128.906624,15.82592 L129.185408,15.82592 C129.4128,15.82592 129.455744,15.665408 129.455744,15.57248 C129.455744,15.327488 129.286784,15.327488 129.193856,15.327488 L128.906624,15.327488 L128.906624,15.82592 Z M128.568704,15.04096 L129.185408,15.04096 C129.396608,15.04096 129.81056,15.04096 129.81056,15.513344 C129.81056,15.842816 129.59936,15.9104 129.471936,15.95264 C129.717632,15.969536 129.733824,16.130048 129.767616,16.358144 C129.785216,16.501056 129.81056,16.746048 129.860544,16.830528 L129.481088,16.830528 C129.471936,16.746048 129.4128,16.289856 129.4128,16.265216 C129.38816,16.16384 129.353664,16.113152 129.227648,16.113152 L128.915072,16.113152 L128.915072,16.830528 L128.568704,16.830528 L128.568704,15.04096 Z M127.830208,15.93152 C127.830208,16.67424 128.430016,17.274048 129.164288,17.274048 C129.907008,17.274048 130.506816,16.661568 130.506816,15.93152 C130.506816,15.1888 129.899264,14.59744 129.164288,14.59744 C128.43776,14.59744 127.830208,15.179648 127.830208,15.93152 Z M130.763776,15.935744 C130.763776,16.813632 130.0464,17.531712 129.168512,17.531712 C128.298368,17.531712 127.572544,16.82208 127.572544,15.935744 C127.572544,15.032512 128.315968,14.339776 129.168512,14.339776 C130.029504,14.339776 130.763776,15.032512 130.763776,15.935744 L130.763776,15.935744 Z" id="Fill-10"></path>
                        </g>
                    </g>
                    <g id="Group-48-Copy-6" transform="translate(0.528000, 200.640000)">
                        <rect id="Rectangle" fill="#272727" x="0" y="0" width="145.728" height="80.96" rx="23.936"></rect>
                        <g id="npm-node-package-manager" transform="translate(17.600000, 21.120000)" fill-rule="nonzero">
                            <polygon id="path4951" fill="#FFFFFF" points="30.5672603 42.6152875 30.5672603 36.5720386 0.232677966 36.5720386 0.232766812 0.375287532 109.352678 0.375287532 109.352589 36.5720386 54.7927177 36.5720386 54.7927177 42.6152875"></polygon>
                            <polygon id="path4949" fill="#1C1C1C" points="48.5425326 36.9832875 48.5425326 30.8658239 60.776678 30.8658239 60.776678 6.71128753 36.136678 6.71128753 36.136678 36.9832875"></polygon>
                            <polygon id="path4947" fill="#FFFFFF" points="48.808678 12.3432875 54.440678 12.3432875 54.440678 24.3112875 48.808678 24.3112875"></polygon>
                            <polygon id="path4945" fill="#1C1C1C" points="18.7587983 30.6472875 18.7587983 12.2048162 24.9837357 12.2048162 24.9837357 30.6472875 31.208678 30.6472875 31.208678 6.00728753 6.56867797 6.00728753 6.56867797 30.6472875"></polygon>
                            <polygon id="path2998" fill="#1C1C1C" points="78.9418223 30.6472875 78.9418223 12.2048162 84.9605327 12.2048162 84.9605327 30.6472875 90.9792478 30.6472875 90.9792478 12.2048162 96.9979583 12.2048162 96.9979583 30.6472875 103.016678 30.6472875 103.016678 6.00728753 67.112678 6.00728753 67.112678 30.6472875"></polygon>
                        </g>
                    </g>
                    <g id="Group-25" transform="translate(57.000000, 307.000000)">
                        <rect id="Rectangle-Copy-28" fill="#272727" x="0.528" y="0.64" width="192" height="80.96" rx="23.936"></rect>
                        <g id="Jamstack_Logo_Original" transform="translate(18.000000, 26.000000)" fill-rule="nonzero">
                            <path d="M49.14,15.44604 L49.14,4.71804 L44.604,4.71804 L44.604,16.57404 C44.604,17.55804 44.532,18.8301 43.236,18.8301 C42.084,18.8301 41.916,17.65404 41.868,16.76604 L37.044,16.76604 C37.044,19.3581 38.1,21.4701 40.62,22.3821 C41.364,22.6701 42.204,22.8141 43.02,22.8141 C44.916,22.8141 46.836,21.9741 48.036,20.4861 C49.14,19.0941 49.14,17.15004 49.14,15.44604 Z M65.7384,22.4781 L65.7384,9.15804 L61.7544,9.15804 L61.7544,10.57404 L61.7064,10.57404 C60.9144,9.25404 59.2824,8.70204 57.8184,8.70204 C53.8104,8.70204 51.1224,11.91804 51.1224,15.80604 C51.1224,19.7661 53.7144,22.9341 57.8184,22.9341 C59.2584,22.9341 60.9864,22.4061 61.7064,21.0381 L61.7544,21.0381 L61.7544,22.4781 L65.7384,22.4781 Z M61.7544,15.80604 C61.7544,17.72604 60.3624,19.2141 58.4184,19.2141 C56.5464,19.2141 55.1064,17.70204 55.1064,15.85404 C55.1064,13.95804 56.4504,12.42204 58.3944,12.42204 C60.3384,12.42204 61.7544,13.86204 61.7544,15.80604 Z M89.0928,22.4781 L89.0928,15.20604 C89.0928,13.16604 89.1648,11.58204 87.6528,10.04604 C86.7168,9.08604 85.4688,8.70204 84.1488,8.70204 C82.3488,8.70204 80.8848,9.56604 79.9248,11.07804 C79.1088,9.56604 77.8128,8.70204 76.0848,8.70204 C74.5728,8.70204 73.1808,9.20604 72.4128,10.57404 L72.3648,10.57404 L72.3648,9.15804 L68.6448,9.15804 L68.6448,22.4781 L72.6288,22.4781 L72.6288,15.39804 C72.6288,13.83804 73.0368,12.44604 74.8848,12.44604 C76.5648,12.44604 76.8768,13.86204 76.8768,15.23004 L76.8768,22.4781 L80.8608,22.4781 L80.8608,15.20604 C80.8608,13.69404 81.2928,12.44604 83.0688,12.44604 C84.9168,12.44604 85.1088,13.93404 85.1088,15.39804 L85.1088,22.4781 L89.0928,22.4781 Z M101.8788,18.39804 C101.8788,13.69404 95.1828,14.87004 95.1828,12.78204 C95.1828,12.18204 95.7828,11.89404 96.3108,11.89404 C97.0068,11.89404 97.5348,12.15804 97.5588,12.90204 L101.4708,12.90204 C101.2068,10.07004 99.0228,8.70204 96.3588,8.70204 C93.7908,8.70204 91.1988,10.31004 91.1988,13.09404 C91.1988,14.96604 92.7828,15.99804 94.3668,16.57404 C94.9428,16.79004 95.5188,16.98204 96.0948,17.17404 C96.8148,17.46204 97.8948,17.75004 97.8948,18.7101 C97.8948,19.4061 97.1028,19.7421 96.5028,19.7421 C95.7108,19.7421 95.1108,19.3341 94.9908,18.51804 L91.0308,18.51804 C91.3428,21.4461 93.6708,22.9341 96.4548,22.9341 C99.1668,22.9341 101.8788,21.3981 101.8788,18.39804 Z M110.5674,12.18204 L110.5674,9.15804 L108.6474,9.15804 L108.6474,4.71804 L104.6634,4.71804 L104.6634,9.15804 L102.6954,9.15804 L102.6954,12.18204 L104.6634,12.18204 L104.6634,22.4781 L108.6474,22.4781 L108.6474,12.18204 L110.5674,12.18204 Z M125.9259,22.4781 L125.9259,9.15804 L121.9419,9.15804 L121.9419,10.57404 L121.8939,10.57404 C121.1019,9.25404 119.4699,8.70204 118.0059,8.70204 C113.9979,8.70204 111.3099,11.91804 111.3099,15.80604 C111.3099,19.7661 113.9019,22.9341 118.0059,22.9341 C119.4459,22.9341 121.1739,22.4061 121.8939,21.0381 L121.9419,21.0381 L121.9419,22.4781 L125.9259,22.4781 Z M121.9419,15.80604 C121.9419,17.72604 120.5499,19.2141 118.6059,19.2141 C116.7339,19.2141 115.2939,17.70204 115.2939,15.85404 C115.2939,13.95804 116.6379,12.42204 118.5819,12.42204 C120.5259,12.42204 121.9419,13.86204 121.9419,15.80604 Z M142.2963,17.41404 L138.2403,17.41404 C137.6403,18.56604 136.6803,19.1901 135.3603,19.1901 C133.4163,19.1901 132.1923,17.67804 132.1923,15.80604 C132.1923,14.00604 133.3443,12.42204 135.2643,12.42204 C136.6323,12.42204 137.6643,13.04604 138.2403,14.29404 L142.2723,14.29404 C141.5763,10.91004 138.6243,8.70204 135.2163,8.70204 C131.2563,8.70204 128.1843,11.84604 128.1843,15.78204 C128.1843,19.7661 131.3283,22.9101 135.3123,22.9101 C138.6723,22.9101 141.5283,20.6781 142.2963,17.41404 Z M156.7368,9.15804 L152.0088,9.15804 L148.3128,13.98204 L148.2648,13.98204 L148.2648,4.71804 L144.2808,4.71804 L144.2808,22.4781 L148.2648,22.4781 L148.2648,16.07004 L148.3128,16.07004 L152.0808,22.4781 L156.5928,22.4781 L151.7208,15.01404 L156.7368,9.15804 Z" id="Shape" fill="#FFFFFF"></path>
                            <path d="M14.61,0.069 C6.56943,0.069 0.06897,6.56946 0.06897,14.61003 C0.06897,22.6506 6.56943,29.151 14.61,29.151 C22.6506,29.151 29.151,22.6506 29.151,14.61003 L29.151,0.069 L14.61,0.069 Z" id="Path" fill="#FFFFFF"></path>
                            <path d="M14.13999,15.06006 L14.13999,25.2555 C8.62182,25.0221 4.17807,20.5782 3.94461,15.06006 L14.13999,15.06006 Z" id="Path" fill="#272727"></path>
                            <path d="M15.06003,15.07998 L25.2555,15.07998 C25.0218,20.598 20.5782,25.0419 15.06003,25.2753 L15.06003,15.07998 Z" id="Path" fill="#272727"></path>
                            <polygon id="Path" fill="#272727" points="15.06003 14.13999 15.06003 3.93927 25.2609 3.93927 25.2609 14.13999"></polygon>
                        </g>
                    </g>
                    <g id="Group-48-Copy-7" transform="translate(165.422857, 201.520000)">
                        <rect id="Rectangle" fill="#272727" x="0.0171428571" y="0" width="146.96" height="81.84" rx="23.936"></rect>
                        <g id="express-js-seeklogo.com" transform="translate(16.737143, 30.800000)" fill="#FFFFFF" fill-rule="nonzero">
                            <path d="M34.7144828,26.4858652 L34.7144828,1.96571677 L36.0752253,1.96571677 L36.0752253,5.82302225 C36.2359416,5.6521486 36.3844028,5.47062265 36.5195494,5.27973979 C37.6546796,2.97484961 40.0507099,1.52060572 42.6660328,1.54920022 C45.7670448,1.45865314 48.2848814,2.58143689 49.7659617,5.27973979 C51.6781179,8.68090862 51.7885012,12.7771722 50.0621778,16.2721549 C48.6829217,19.2964273 45.2764369,20.7995088 41.6292766,20.2471716 C39.3231799,20.0550251 37.2739421,18.7323214 36.1863063,16.733945 L36.1863063,26.4858652 L34.7144828,26.4858652 Z M36.0752253,10.6401267 C36.1955631,11.8353482 36.2418469,12.6864907 36.3806981,13.5195238 C36.9175898,16.797328 38.8985347,18.7440901 42.0088034,19.0972237 C45.0203242,19.5814435 47.9620858,17.9170883 49.0346783,15.1222071 C50.2437526,12.3020926 50.1560962,9.10981153 48.7940028,6.35725001 C47.6533535,3.86152864 44.9610898,2.4062703 42.1939385,2.78969517 C39.6017776,2.97340427 37.4132482,4.74343926 36.7417115,7.19933782 C36.4517919,8.33271204 36.2292568,9.48156729 36.0752253,10.6401267 L36.0752253,10.6401267 Z" id="path4"></path>
                            <path d="M79.2867019,13.1510433 C78.8784047,16.7030939 75.9453994,19.3989807 72.4270779,19.4561017 C66.967739,19.7353257 64.4064582,16.0513702 63.9987803,11.7999594 C63.7158197,9.49121706 64.0846663,7.14829657 65.0622879,5.04453963 C66.4593355,2.08338063 69.5816872,0.381957742 72.7815805,0.838164948 C75.8219215,1.1000559 78.356417,3.3094958 79.0740004,6.32356577 C79.3513843,7.66212615 79.5555365,9.01528647 79.6855172,10.3768176 L65.3370273,10.3768176 C65.0711504,14.2319105 67.10954,17.3303963 69.9987356,18.0779961 C73.5969363,18.9787187 76.6722457,17.3934469 77.7889287,13.9166575 C78.0370805,13.0249421 78.4890712,12.898841 79.2867019,13.1510433 Z M65.3370273,9.1428276 L78.1611564,9.1428276 C78.0813933,5.03553241 75.5644253,2.06314773 72.1523385,2.01811159 C68.2882609,1.95506101 65.505416,4.81935898 65.3370273,9.1428276 Z" id="path6"></path>
                            <path d="M82.0525626,13.262619 L83.3230579,13.262619 C83.4187392,15.1782417 84.572322,16.8792042 86.311406,17.6689505 C88.4812977,18.6503859 90.9779667,18.5841767 93.0933456,17.4891002 C94.2589282,16.9609731 94.9732481,15.7584211 94.8827756,14.4766083 C94.9500198,13.2364491 94.1902583,12.1020424 93.0217684,11.6979217 C91.626013,11.1763559 90.1407861,10.8885955 88.7181893,10.4299773 C87.2380098,10.0063235 85.7906693,9.47434387 84.3877687,8.83830244 C82.0972983,7.71423828 81.9541439,3.33488431 84.5488174,1.95003727 C87.2483367,0.418938891 90.5361775,0.368152355 93.2812358,1.81514957 C94.9570098,2.74598612 95.8836396,4.62297011 95.6074947,6.52722653 L94.5159424,6.52722653 C94.5159424,6.47327145 94.4175238,6.42830888 94.4175238,6.3743538 C94.2833166,2.87626613 91.3665457,1.79716454 88.2350432,2.10290999 C87.3002256,2.218806 86.3922446,2.49562334 85.5508982,2.9212287 C84.5149859,3.39736821 83.8909096,4.47881728 83.9940941,5.61898269 C83.9972832,6.75946261 84.7136877,7.77471446 85.7835241,8.15487143 C87.1613852,8.65845218 88.6018763,8.98218266 90.015526,9.37785324 C91.1518141,9.69259121 92.3328379,9.89941901 93.4333373,10.2771046 C95.0235233,10.8010169 96.1269486,12.2570526 96.2069538,13.9370575 C96.4792956,15.7811187 95.5454302,17.5930881 93.889642,18.4333141 C90.9012939,20.1328991 85.9803614,19.6832735 83.7883097,17.5340628 C82.6662038,16.3998164 82.0413323,14.8620905 82.0525626,13.262619 Z" id="path8"></path>
                            <path d="M113.775278,6.49110988 L112.58094,6.49110988 C112.58094,6.32960005 112.51808,6.18603575 112.50012,6.05144422 C112.460193,4.20788547 111.134484,2.64375908 109.321206,2.30082698 C107.661086,1.82489607 105.890138,1.91006036 104.283434,2.54309173 C102.979144,2.91677413 102.076485,4.10352962 102.065378,5.4592415 C102.019351,6.79564927 102.919803,7.98029141 104.220574,8.29463635 C106.016571,8.850948 107.857468,9.19191321 109.680405,9.69438824 C110.271135,9.83605968 110.852876,10.0128385 111.422522,10.2237816 C113.163421,10.8461353 114.344501,12.4711889 114.3981,14.3178927 C114.4517,16.1645964 113.366858,17.8553114 111.664982,18.5774291 C109.102512,19.7400829 106.168222,19.7694022 103.582995,18.658184 C101.429676,17.7302041 100.082424,15.5605811 100.206521,13.2206863 L100.7094,13.2206863 L101.373919,13.2206863 C101.812359,15.3342981 103.266142,17.0957068 105.259281,17.9282053 C107.25242,18.7607039 109.528275,18.5570981 111.341702,17.3840509 C112.452841,16.8072464 113.126195,15.6368325 113.065859,14.3871462 C113.121451,13.1489793 112.347871,12.0243431 111.171082,11.6325062 C109.770205,11.1120857 108.279527,10.8339298 106.85171,10.3763187 C105.357601,9.96012261 103.895953,9.43531162 102.478457,8.80608416 C100.233461,7.70243363 100.053862,3.36858644 102.613157,1.98678008 C105.359218,0.393293566 108.740552,0.355829064 111.521302,1.88807963 C113.118736,2.84092262 114.002693,4.64612476 113.775278,6.49110988 L113.775278,6.49110988 Z" id="path10"></path>
                            <path d="M33.1365517,19.3379372 C32.1567267,19.7049548 31.0541625,19.2901922 30.5684577,18.3718715 C29.0945164,16.1892788 27.4668511,14.1050816 25.9024839,11.9761591 L25.2242901,11.0816539 C23.3615176,13.5504883 21.4987452,15.9209272 19.7987393,18.3808166 C19.3405895,19.2579869 18.2962928,19.663548 17.3572414,19.3289921 L24.3471594,10.0529729 L17.845541,1.67145884 C18.8103255,1.32685343 19.8870778,1.70058626 20.4226776,2.56596407 C21.9327893,4.74855684 23.6056674,6.83275403 25.269503,9.04218195 C26.9423812,6.85064413 28.5971742,4.75750189 30.1434562,2.59279923 C30.6044839,1.72919334 31.6466429,1.34452227 32.5668689,1.69829399 L30.0439877,5.00796335 C28.9136647,6.48389699 27.8014267,7.96877567 26.6258907,9.4089291 C26.4343142,9.57861435 26.3248309,9.8209594 26.3248309,10.0753355 C26.3248309,10.3297116 26.4343142,10.5720566 26.6258907,10.7417419 C28.7870685,13.5773235 30.9301611,16.4218501 33.1365517,19.3379372 L33.1365517,19.3379372 Z" id="path12"></path>
                            <path d="M63.1172414,1.54415094 L63.1172414,2.80597095 C61.1773026,2.6850608 59.2741541,3.35011001 57.8788348,4.63651552 C56.4835155,5.92292103 55.7264266,7.71046022 55.7949516,9.55670801 C55.7949516,12.5249894 55.7949516,15.4932707 55.7949516,18.4615521 C55.7949516,18.7770071 55.7949516,19.0924621 55.7949516,19.4710081 L54.4386207,19.4710081 L54.4386207,1.61625494 L55.7664971,1.61625494 L55.7664971,5.27553297 C57.4073729,2.60768495 59.9398229,1.61625494 63.1172414,1.54415094 L63.1172414,1.54415094 Z" id="path14"></path>
                            <path d="M0,9.54842221 C0.187353588,8.65229774 0.30333438,7.67552206 0.562060763,6.7614751 C2.10549746,1.25030961 8.39522504,-1.04376904 12.7222008,2.3704652 C15.255935,4.36882277 15.8893685,7.2005761 15.7644661,10.3907792 L1.4899071,10.3907792 C1.25794552,16.0901308 5.35295964,19.5312488 10.5899385,17.7748449 C12.3157337,17.1547821 13.6139643,15.7025241 14.0425975,13.9125484 C14.319167,13.0164239 14.765247,12.8640828 15.612799,13.1239588 C15.3299447,15.3342675 14.0543315,17.292515 12.1512184,18.437977 C8.96754222,20.1866859 5.02531258,19.6804168 2.38206704,17.1834027 C1.10731058,15.7437324 0.33652707,13.9246567 0.187353588,12.0038033 C0.187353588,11.6991209 0.0713727952,11.3944386 0.00892159941,11.1076788 C0.00297386647,10.5759783 0,10.0562261 0,9.54842221 Z M1.5077503,9.16308869 L14.4173046,9.16308869 C14.3370102,5.03195488 11.7408248,2.10162786 8.27924425,2.07474412 C4.4251133,2.02097665 1.66833909,4.88857496 1.4988287,9.1451662 L1.5077503,9.16308869 Z" id="path16"></path>
                        </g>
                    </g>
                </g>
                <rect id="Rectangle-Copy-29" fill="#1C1C1C" x="91" y="70" width="46" height="19" rx="9.5"></rect>
                <rect id="Rectangle-Copy-54" fill="#1C1C1C" x="382" y="65" width="46" height="19" rx="9.5"></rect>
                <rect id="Rectangle-Copy-56" fill="#1C1C1C" x="52" y="101" width="46" height="19" rx="9.5"></rect>
                <rect id="Rectangle-Copy-70" fill="#1C1C1C" x="404" y="270" width="46" height="19" rx="9.5"></rect>
                <rect id="Rectangle-Copy-71" fill="#1C1C1C" x="404" y="208" width="46" height="19" rx="9.5"></rect>
                <rect id="Rectangle-Copy-72" fill="#1C1C1C" x="405" y="34" width="46" height="19" rx="9.5"></rect>
                <rect id="Rectangle-Copy-73" fill="#1C1C1C" x="29" y="132" width="46" height="19" rx="9.5"></rect>
                <rect id="Rectangle-Copy-74" fill="#1C1C1C" x="430" y="301" width="46" height="19" rx="9.5"></rect>
                <rect id="Rectangle-Copy-75" fill="#1C1C1C" x="430" y="239" width="46" height="19" rx="9.5"></rect>
                <rect id="Rectangle-Copy-76" fill="#1C1C1C" x="21" y="224" width="46" height="19" rx="9.5"></rect>
                <rect id="Rectangle-Copy-77" fill="#1C1C1C" x="0" y="192" width="46" height="19" rx="9.5"></rect>
                <rect id="Rectangle-Copy-78" fill="#1C1C1C" x="405" y="96" width="46" height="19" rx="9.5"></rect>
                <rect id="Rectangle-Copy-79" fill="#1C1C1C" x="32" y="70" width="46" height="19" rx="9.5"></rect>
                <rect id="Rectangle-Copy-80" fill="#1C1C1C" x="373" y="301" width="46" height="19" rx="9.5"></rect>
                <rect id="Rectangle-Copy-81" fill="#1C1C1C" x="70" y="310" width="46" height="19" rx="9.5"></rect>
                <rect id="Rectangle-Copy-82" fill="#1C1C1C" x="12" y="310" width="46" height="19" rx="9.5"></rect>
                <rect id="Rectangle-Copy-83" fill="#1C1C1C" x="41" y="341" width="46" height="19" rx="9.5"></rect>
                <rect id="Rectangle-Copy-84" fill="#1C1C1C" x="422" y="0" width="46" height="19" rx="9.5"></rect>
            </g>
        </g>
    </g>
</svg>