<svg id="icon" xmlns="http://www.w3.org/2000/svg" viewBox="0 0 140 140">
  <path id="strategy" d="M136.78,132.86l-17.2-34.38V84.58a5.84,5.84,0,0,0-5.83-5.83H72.92V72.92h5.83a2.92,2.92,0,0,0,0-5.84H61.25a2.92,2.92,0,0,0,0,5.84h5.83v5.83H26.25a5.84,5.84,0,0,0-5.83,5.83v11.9a20.42,20.42,0,1,0,5.83,0V84.58H67.08V96.25H52.5a2.92,2.92,0,0,0-2.92,2.92v35a2.91,2.91,0,0,0,2.92,2.91h35a2.91,2.91,0,0,0,2.92-2.91v-35a2.92,2.92,0,0,0-2.92-2.92H72.92V84.58h40.83v13.9L96.56,132.86a2.92,2.92,0,0,0,2.61,4.22h35a2.92,2.92,0,0,0,2.61-4.22ZM37.92,116.67a14.59,14.59,0,1,1-14.59-14.59A14.6,14.6,0,0,1,37.92,116.67Zm46.66-14.59v29.17H55.42V102.08Zm19.31,29.17,12.78-25.56,12.78,25.56ZM49.58,38a20.22,20.22,0,0,0,8.75,16.14v4.21a2.92,2.92,0,0,0,2.92,2.92h17.5a2.92,2.92,0,0,0,2.92-2.92V54.12A20.22,20.22,0,0,0,90.42,38v-.15A21,21,0,0,0,70.08,17.5h-.16A21,21,0,0,0,49.58,37.83ZM70,23.33A15.12,15.12,0,0,1,84.58,37.92a14.32,14.32,0,0,1-7.26,12,2.91,2.91,0,0,0-1.49,2.54v2.92H64.17V52.5A2.91,2.91,0,0,0,62.68,50a14.3,14.3,0,0,1-7.26-12A15.12,15.12,0,0,1,70,23.33ZM67.08,11.67V5.83a2.92,2.92,0,0,1,5.84,0v5.84a2.92,2.92,0,0,1-5.84,0ZM86.5,21.42a2.92,2.92,0,0,1,0-4.13l4.12-4.12a2.92,2.92,0,0,1,4.13,4.12l-4.13,4.13a2.92,2.92,0,0,1-4.12,0Zm9.75,10.66h5.83a2.92,2.92,0,0,1,0,5.84H96.25a2.92,2.92,0,0,1,0-5.84Zm-51-14.79a2.92,2.92,0,1,1,4.13-4.12l4.12,4.12a2.92,2.92,0,0,1,0,4.13,2.92,2.92,0,0,1-4.12,0ZM35,35a2.92,2.92,0,0,1,2.92-2.92h5.83a2.92,2.92,0,0,1,0,5.84H37.92A2.92,2.92,0,0,1,35,35Z"/>
</svg>
