<svg id="icon" xmlns="http://www.w3.org/2000/svg" viewBox="0 0 140 140">
  <path id="team-meeting" d="M70,32.08A16,16,0,1,1,86,16,16.05,16.05,0,0,1,70,32.08ZM70,5.83A10.21,10.21,0,1,0,80.21,16,10.22,10.22,0,0,0,70,5.83Zm26.25,52.5H43.75a2.92,2.92,0,0,1-2.83-3.63,30,30,0,0,1,58.16,0,2.92,2.92,0,0,1-2.83,3.63ZM47.82,52.5H92.18a24.17,24.17,0,0,0-44.36,0ZM29.17,113.75a16,16,0,1,1,16-16A16.07,16.07,0,0,1,29.17,113.75Zm0-26.25A10.21,10.21,0,1,0,39.38,97.71,10.22,10.22,0,0,0,29.17,87.5ZM55.42,140H2.92a2.92,2.92,0,0,1-2.83-3.64,30,30,0,0,1,58.15,0A2.92,2.92,0,0,1,55.42,140ZM7,134.17H51.35a24.17,24.17,0,0,0-44.37,0Zm103.85-20.42a16,16,0,1,1,16-16A16.06,16.06,0,0,1,110.83,113.75Zm0-26.25A10.21,10.21,0,1,0,121,97.71,10.22,10.22,0,0,0,110.83,87.5ZM137.08,140H84.58a2.92,2.92,0,0,1-2.82-3.64,30,30,0,0,1,58.15,0,2.92,2.92,0,0,1-2.83,3.64Zm-48.43-5.83H133a24.17,24.17,0,0,0-44.37,0Zm-.06-21.11a2.92,2.92,0,1,0-2.18-5.41,43.74,43.74,0,0,1-32.82,0,2.92,2.92,0,1,0-2.18,5.41,49.54,49.54,0,0,0,37.18,0ZM119.2,73.28A49.45,49.45,0,0,0,97.89,26.09a2.92,2.92,0,1,0-3.28,4.82,43.65,43.65,0,0,1,18.8,41.64,2.92,2.92,0,0,0,2.53,3.26,2.36,2.36,0,0,0,.37,0A2.92,2.92,0,0,0,119.2,73.28ZM24.06,75.81a2.92,2.92,0,0,0,2.53-3.26,43.65,43.65,0,0,1,18.8-41.64,2.92,2.92,0,1,0-3.28-4.82A49.45,49.45,0,0,0,20.8,73.28a2.92,2.92,0,0,0,2.89,2.55A2.36,2.36,0,0,0,24.06,75.81Z"/>
</svg>
