<svg id="icon" xmlns="http://www.w3.org/2000/svg" viewBox="0 0 140 140">
  <path id="man-office" d="M63,61.93a11.73,11.73,0,0,0,14,0,2.92,2.92,0,0,1,3.5,4.67,17.58,17.58,0,0,1-21,0A2.92,2.92,0,0,1,63,61.93Zm68.45,45.61c-8.3-6.36-27.31-17-61.45-17s-53.08,10.66-61.45,17a14.51,14.51,0,0,0-5.63,11.52v18.12a2.92,2.92,0,1,0,5.83,0V119a8.68,8.68,0,0,1,3.34-6.87C19.86,106.26,37.72,96.35,70,96.35s50.19,9.91,57.89,15.81a8.68,8.68,0,0,1,3.36,6.9v18.12a2.92,2.92,0,1,0,5.83,0v-18.1A14.52,14.52,0,0,0,131.45,107.54ZM77.29,49.68a4.38,4.38,0,1,1,4.38,4.38A4.38,4.38,0,0,1,77.29,49.68Zm2.92,0a1.46,1.46,0,1,0,1.46-1.46A1.46,1.46,0,0,0,80.21,49.68ZM54,49.68a4.38,4.38,0,1,1,4.37,4.38A4.37,4.37,0,0,1,54,49.68Zm2.92,0a1.46,1.46,0,1,0,1.45-1.46A1.45,1.45,0,0,0,56.88,49.68Zm-24.8,0V38a37.92,37.92,0,0,1,75.84,0V49.68a37.92,37.92,0,0,1-75.84,0Zm6-14.53c8.28.19,20.57.33,29.71-10.67a2.91,2.91,0,0,1,4.48,0c9.14,11,21.42,10.86,29.71,10.67a32.08,32.08,0,0,0-63.9,0Zm-.13,14.53a32.08,32.08,0,1,0,64.16,0V41c-7.77.18-21.42.34-32.08-10.31C60.7,40,49.12,41,41.15,41,40,41,38.91,41,37.92,41Zm37.66,57.79a5.84,5.84,0,0,0-11.16,0l-8.87,28.86A2.91,2.91,0,0,0,61.12,138L70,109.18,78.88,138a2.92,2.92,0,0,0,2.79,2.06,2.79,2.79,0,0,0,.85-.13,2.92,2.92,0,0,0,1.94-3.64Zm38.17,21H96.25a2.92,2.92,0,1,0,0,5.84h17.5a2.92,2.92,0,1,0,0-5.84Z"/>
</svg>
